<svg width="185" height="45" viewBox="0 0 185 45" fill="none" xmlns="http://www.w3.org/2000/svg">
<path d="M39.9266 7.17978C36.0357 1.64169 28.3505 0.000169039 22.7947 3.52137L13.0373 9.7064C12.3801 10.1173 11.768 10.5943 11.2108 11.1304C10.6533 11.6665 10.1534 12.2591 9.71936 12.8984C9.28493 13.5373 8.91842 14.2195 8.62576 14.9338C8.33361 15.6483 8.11646 16.3912 7.9786 17.1505C7.86312 17.7872 7.80053 18.4323 7.79145 19.0792C7.78288 19.7269 7.82788 20.3731 7.92645 21.0129C8.02503 21.6528 8.17646 22.2833 8.38004 22.8983C8.5829 23.5132 8.83648 24.1097 9.13863 24.6834C8.93005 24.9969 8.73862 25.3211 8.56361 25.6545C8.38789 25.988 8.23003 26.3299 8.09003 26.679C7.94931 27.028 7.82717 27.3842 7.72288 27.7461C7.61859 28.1072 7.53287 28.4741 7.46573 28.8444C7.32715 29.6201 7.26644 30.4085 7.28429 31.1962C7.30287 31.9846 7.40001 32.7687 7.5743 33.5372C7.74931 34.3065 8.00003 35.0558 8.32432 35.7752C8.64862 36.4947 9.04434 37.18 9.50507 37.8213C13.3959 43.3594 21.0811 45.0002 26.6369 41.4797L36.395 35.3202C37.0508 34.9086 37.6622 34.4316 38.2186 33.8948C38.7758 33.3581 39.2758 32.7659 39.7101 32.1268C40.1437 31.4877 40.5101 30.8059 40.8037 30.0914C41.0966 29.3776 41.3137 28.6354 41.453 27.8762C41.6839 26.6007 41.7008 25.2961 41.503 24.0151C41.4037 23.376 41.2523 22.7461 41.0487 22.1312C40.8459 21.517 40.5916 20.9198 40.2894 20.3475C40.4973 20.0333 40.6894 19.7091 40.8644 19.3757C41.0401 19.0422 41.198 18.7003 41.3387 18.3512C41.4794 18.0022 41.6023 17.646 41.7073 17.2841C41.8116 16.923 41.898 16.5561 41.9659 16.1865C42.1042 15.4104 42.1647 14.6227 42.1466 13.8347C42.128 13.0463 42.0309 12.2622 41.8559 11.4937C41.6814 10.7247 41.4304 9.97505 41.1066 9.25567C40.7825 8.53635 40.3872 7.85095 39.9266 7.20964" fill="#FF3E00"/>
<path d="M21.8438 38.357C20.3078 38.7536 18.6865 38.6717 17.1987 38.1224C16.459 37.8498 15.7655 37.4662 15.1422 36.9849C14.5189 36.5039 13.9729 35.9312 13.5229 35.2865C13.2458 34.9005 13.0086 34.4889 12.8136 34.0566C12.6186 33.6237 12.4679 33.1729 12.3629 32.7108C12.2586 32.2487 12.2 31.7774 12.1893 31.3032C12.1786 30.8297 12.2157 30.3563 12.2993 29.8899C12.3136 29.8138 12.3286 29.7378 12.345 29.6624C12.3614 29.587 12.38 29.5117 12.3993 29.437C12.4186 29.3624 12.4393 29.2877 12.4615 29.2138C12.4836 29.1399 12.5072 29.0659 12.5315 28.9927L12.715 28.4346L13.2165 28.8064C13.5036 29.0155 13.8001 29.2117 14.1043 29.3958C14.4079 29.5799 14.7201 29.7506 15.0387 29.9084C15.3572 30.0662 15.6822 30.2105 16.0137 30.3406C16.3444 30.4714 16.6808 30.588 17.0216 30.6897L17.3951 30.7977L17.3616 31.1703C17.353 31.2961 17.3551 31.4234 17.368 31.5492C17.3809 31.675 17.4051 31.8001 17.4401 31.9217C17.4744 32.044 17.5194 32.1627 17.5752 32.2765C17.6302 32.3909 17.6952 32.4997 17.7694 32.6028C17.9052 32.7969 18.0702 32.9689 18.258 33.1139C18.4459 33.2582 18.6545 33.3734 18.8773 33.4559C19.1002 33.5376 19.3345 33.5853 19.5716 33.5974C19.8088 33.6094 20.0466 33.5853 20.2766 33.5256C20.3288 33.512 20.3816 33.4957 20.4331 33.4779C20.4845 33.4594 20.5352 33.4395 20.5852 33.4182C20.6352 33.3962 20.6845 33.3727 20.7331 33.3471C20.7817 33.3215 20.8288 33.2945 20.8752 33.2654L30.6176 27.0796C30.8569 26.9301 31.0621 26.7322 31.2198 26.4988C31.2984 26.3822 31.3648 26.2585 31.4176 26.1284C31.4705 25.9983 31.5098 25.8632 31.5341 25.7253C31.6095 25.3002 31.5542 24.8624 31.3755 24.4691C31.3162 24.3383 31.2441 24.2146 31.1605 24.0987C31.0248 23.9046 30.8598 23.7326 30.6719 23.5876C30.2941 23.2964 29.8356 23.1277 29.3583 23.1041C29.1212 23.092 28.8833 23.1162 28.6533 23.1752C28.6004 23.1894 28.5483 23.2051 28.4969 23.2236C28.4447 23.2413 28.394 23.2612 28.344 23.2833C28.294 23.3046 28.2447 23.3288 28.1961 23.3537C28.1483 23.3793 28.1011 23.407 28.0547 23.4361L24.3132 25.7992C24.0077 25.9921 23.688 26.1615 23.3567 26.3061C23.191 26.3779 23.0231 26.4441 22.8524 26.5038C22.6817 26.5635 22.5088 26.6161 22.3338 26.663C21.5717 26.8585 20.7838 26.9381 19.9974 26.8976C19.2109 26.8578 18.4359 26.6986 17.6973 26.4263C16.9594 26.1535 16.2674 25.7707 15.6451 25.2909C15.0225 24.8112 14.4772 24.2396 14.0279 23.5961C13.4747 22.8222 13.0821 21.9463 12.8729 21.0197C12.7686 20.5576 12.7115 20.0863 12.7007 19.6128C12.6907 19.1393 12.7279 18.6658 12.8122 18.1995C12.9772 17.2818 13.3332 16.4086 13.8572 15.6359C14.1183 15.2507 14.419 14.8935 14.7544 14.5702C15.0901 14.2467 15.4587 13.9588 15.8537 13.7107L25.6268 7.52568C25.7782 7.429 25.9339 7.33871 26.0925 7.25482C26.2511 7.17022 26.4132 7.09202 26.5775 7.0195C26.7425 6.94699 26.9097 6.88087 27.079 6.82187C27.249 6.76215 27.4211 6.70883 27.5947 6.66191C28.3576 6.46498 29.1469 6.38465 29.9347 6.42446C30.7226 6.46427 31.4991 6.62281 32.2384 6.8958C32.9777 7.1688 33.6713 7.5527 34.2941 8.03399C34.917 8.51457 35.4627 9.08758 35.912 9.73239C36.4677 10.5051 36.8626 11.3806 37.0735 12.3073C37.1785 12.7694 37.2371 13.2415 37.2478 13.715C37.2592 14.1887 37.2228 14.6625 37.1392 15.129C37.1242 15.2058 37.1085 15.2818 37.0914 15.3579C37.0749 15.434 37.0564 15.5093 37.0371 15.5847C37.0178 15.6601 36.9971 15.7354 36.9756 15.8101C36.9535 15.8847 36.9306 15.9594 36.9071 16.0333L36.7199 16.5914L36.222 16.2196C35.9342 16.0092 35.6375 15.8111 35.3327 15.6259C35.0277 15.4404 34.7149 15.2683 34.3956 15.1091C34.0759 14.9502 33.7497 14.8048 33.4177 14.6733C33.0855 14.5418 32.7477 14.4245 32.4062 14.3214L32.0319 14.2133L32.0655 13.8415C32.0762 13.7143 32.0755 13.587 32.0641 13.4598C32.0527 13.3328 32.0297 13.2072 31.9955 13.0844C31.9619 12.9614 31.9177 12.842 31.8627 12.7268C31.8077 12.6116 31.7434 12.5014 31.6691 12.3969C31.5323 12.2065 31.3676 12.0375 31.1805 11.8957C30.9928 11.7543 30.7847 11.6419 30.5633 11.5623C30.3423 11.4824 30.1104 11.4366 29.8755 11.4265C29.6397 11.4159 29.4047 11.4407 29.1769 11.5005C29.124 11.514 29.0719 11.5303 29.0204 11.5481C28.969 11.5659 28.9176 11.5858 28.8676 11.6078C28.8176 11.6298 28.7683 11.6533 28.7204 11.6789C28.6719 11.7045 28.6247 11.7315 28.5783 11.7606L18.8173 17.935C18.5792 18.0852 18.3747 18.2827 18.2166 18.5151C18.138 18.6311 18.0715 18.7547 18.018 18.8841C17.9652 19.0142 17.9259 19.1486 17.9009 19.2865C17.8759 19.4272 17.8659 19.5701 17.8694 19.7137C17.8737 19.8566 17.8916 19.9988 17.9237 20.1389C17.9559 20.2783 18.0016 20.4142 18.0602 20.5448C18.1195 20.6756 18.1909 20.8 18.2745 20.9166C18.4095 21.1086 18.573 21.2792 18.7595 21.4228C18.9459 21.5664 19.153 21.6816 19.3745 21.7633C19.5952 21.8451 19.8274 21.8934 20.0624 21.9062C20.2981 21.919 20.5338 21.897 20.7631 21.8394C20.8152 21.8252 20.8674 21.8088 20.9195 21.7911C20.971 21.7726 21.0217 21.7527 21.0717 21.7306C21.1217 21.7093 21.171 21.6858 21.2195 21.6602C21.2674 21.6347 21.3152 21.6076 21.3617 21.5792L25.1025 19.2189C25.2553 19.1223 25.4118 19.0305 25.5718 18.9452C25.7311 18.8599 25.8939 18.781 26.0604 18.7085C26.2261 18.636 26.3947 18.5699 26.5661 18.5101C26.7368 18.4511 26.9104 18.3978 27.0854 18.3523C27.849 18.1547 28.6376 18.0736 29.4254 18.1127C30.2129 18.1524 30.9896 18.3111 31.7291 18.5834C32.4686 18.856 33.1619 19.2396 33.7848 19.7209C34.4084 20.2014 34.9534 20.7744 35.4027 21.4185C35.6799 21.8046 35.9178 22.2162 36.1128 22.6484C36.3078 23.0814 36.4592 23.5314 36.5642 23.9942C36.6692 24.4563 36.7278 24.9277 36.7385 25.4011C36.7499 25.8753 36.7135 26.3488 36.6299 26.8152C36.5478 27.2729 36.4178 27.7208 36.2421 28.1517C36.0663 28.5823 35.8461 28.9935 35.5849 29.3787C35.3242 29.7641 35.0234 30.1217 34.6877 30.4451C34.352 30.7686 33.9834 31.0565 33.5884 31.3039L23.8267 37.4897C23.6739 37.5863 23.5174 37.6773 23.3574 37.7619C23.1974 37.8465 23.0346 37.9255 22.8689 37.998C22.7024 38.0705 22.5338 38.1366 22.3631 38.197C22.1924 38.2567 22.0188 38.3101 21.8438 38.357Z" fill="white"/>
<path d="M63.1813 33.9837C62.7299 33.9951 62.2784 33.973 61.8306 33.9169C61.3827 33.8614 60.9391 33.7718 60.5048 33.6503C60.0705 33.528 59.6455 33.3737 59.2348 33.1889C58.8234 33.0036 58.4265 32.7878 58.0476 32.5433C57.6948 32.3116 57.3626 32.0507 57.0547 31.7628C56.7469 31.4748 56.464 31.1613 56.209 30.8258C55.9547 30.4895 55.7297 30.1333 55.5361 29.7594C55.3426 29.3854 55.1818 28.9958 55.0547 28.5949L58.1712 27.4524C58.2791 27.6991 58.4033 27.938 58.5448 28.1676C58.6862 28.3972 58.8434 28.6169 59.0155 28.8238C59.1884 29.0314 59.3748 29.2269 59.5748 29.4082C59.7747 29.5896 59.9871 29.7569 60.2105 29.9087C60.437 30.0601 60.6755 30.1937 60.9227 30.3089C61.1698 30.4241 61.4256 30.5201 61.6877 30.5968C61.9499 30.6736 62.217 30.7305 62.4877 30.766C62.7585 30.8023 63.0313 30.8179 63.3042 30.813C63.5663 30.8265 63.8285 30.8179 64.0885 30.7867C64.3485 30.7554 64.6056 30.7013 64.8564 30.626C65.1071 30.5506 65.3507 30.4539 65.585 30.3366C65.8192 30.2198 66.0426 30.0828 66.2528 29.9272C66.4364 29.7736 66.6021 29.5987 66.7457 29.4068C67.0329 29.0215 67.2263 28.5752 67.3107 28.1029C67.3521 27.8669 67.3664 27.6273 67.3529 27.3892C67.3536 27.2783 67.3486 27.1666 67.3357 27.0564C67.3236 26.9463 67.305 26.8368 67.2793 26.7287C67.2536 26.6206 67.2214 26.514 67.1836 26.4102C67.145 26.3057 67.1 26.204 67.0493 26.1052C66.9617 25.9273 66.8599 25.7566 66.745 25.5948C66.6878 25.5137 66.6271 25.4348 66.5635 25.3588C66.5007 25.282 66.4343 25.2088 66.365 25.137C66.2771 25.058 66.1864 24.982 66.0928 24.9095C65.9993 24.8369 65.9028 24.768 65.8042 24.7033C65.7052 24.6381 65.6037 24.5767 65.5 24.5192C65.3964 24.4623 65.2907 24.4083 65.1828 24.3592C64.6514 24.0955 64.2135 23.8943 63.8621 23.7563C63.5099 23.6184 62.9942 23.4329 62.317 23.2018C61.4634 22.9039 60.8198 22.6736 60.4013 22.5023C60.257 22.4418 60.1148 22.3786 59.9727 22.3139C59.8312 22.2485 59.6905 22.1809 59.5512 22.1113C59.4112 22.0409 59.2734 21.9691 59.1362 21.8944C58.9991 21.8205 58.8634 21.7437 58.7284 21.6648C58.5834 21.5885 58.4417 21.5064 58.3033 21.4188C58.165 21.3309 58.0301 21.2377 57.899 21.1394C57.7682 21.041 57.6415 20.9373 57.519 20.8288C57.3964 20.7202 57.2782 20.6069 57.1647 20.4889C57.0669 20.3731 56.974 20.2543 56.8854 20.1313C56.7976 20.0084 56.714 19.8825 56.6354 19.7531C56.5576 19.6237 56.4847 19.4915 56.4169 19.3564C56.349 19.2214 56.2861 19.0842 56.2297 18.9441C55.9002 18.1474 55.7636 17.2848 55.831 16.4258C55.8984 15.5669 56.1678 14.7358 56.6176 13.9996C56.9163 13.5098 57.2904 13.0696 57.7262 12.6951C59.0034 11.5761 60.7355 11.0166 62.9227 11.0166C64.7535 11.0166 66.2578 11.4176 67.435 12.2188C67.7186 12.4065 67.9857 12.6183 68.2322 12.8515C68.4793 13.0854 68.705 13.3399 68.9072 13.6129C69.1093 13.8852 69.2872 14.1752 69.4386 14.4788C69.5901 14.7824 69.7143 15.098 69.8108 15.4236L66.75 16.4395C66.6728 16.2689 66.5821 16.104 66.4785 15.9476C66.375 15.7912 66.2593 15.6426 66.1328 15.5039C65.8786 15.2265 65.5818 14.9908 65.2535 14.8058C65.0571 14.6978 64.8528 14.6032 64.6428 14.5229C64.4328 14.4425 64.2178 14.3757 63.9992 14.3245C63.7806 14.2733 63.5585 14.2364 63.3342 14.2143C63.1106 14.193 62.8856 14.1866 62.6606 14.1951C62.4406 14.1823 62.2199 14.188 61.9999 14.2115C61.7806 14.2349 61.5634 14.2762 61.3513 14.3352C61.1384 14.3949 60.9313 14.471 60.7313 14.5641C60.5313 14.6572 60.3398 14.7667 60.1577 14.8911C60.0091 15.0063 59.8741 15.1392 59.7569 15.2864C59.6398 15.4336 59.5405 15.5942 59.4619 15.7649C59.3834 15.9355 59.3262 16.1153 59.2905 16.3002C59.2555 16.4843 59.2427 16.6727 59.2527 16.8597C59.2554 17.148 59.319 17.4326 59.4391 17.695C59.4998 17.8258 59.5734 17.9502 59.6591 18.0654C59.7453 18.181 59.8434 18.2873 59.952 18.3825C60.0577 18.4856 60.1684 18.5837 60.2834 18.6768C60.3984 18.7699 60.517 18.8581 60.6405 18.9405C60.8866 19.1053 61.1472 19.2473 61.4191 19.365C61.9277 19.5768 62.7056 19.8598 63.7456 20.2209C64.3821 20.4555 64.8685 20.6261 65.1642 20.7456C65.4592 20.8643 65.9121 21.0541 66.5185 21.33C66.6378 21.3826 66.7557 21.4373 66.8728 21.4949C66.99 21.5525 67.1057 21.6122 67.22 21.674C67.3343 21.7366 67.4479 21.8006 67.56 21.8674C67.6714 21.9342 67.7822 22.0032 67.8914 22.0743C67.9893 22.144 68.0857 22.2158 68.1814 22.2883C68.3731 22.4337 68.5603 22.5847 68.7429 22.7411C68.8343 22.8186 68.925 22.8983 69.0136 22.9786C69.3014 23.2273 69.5582 23.5095 69.7786 23.8189C69.8522 23.922 69.9215 24.0279 69.9865 24.136C70.0486 24.249 70.1072 24.3635 70.1622 24.4801C70.2724 24.7126 70.3681 24.9517 70.4486 25.196C70.4891 25.3179 70.526 25.4409 70.5594 25.5649C70.6001 25.7107 70.6358 25.8578 70.6658 26.0057C70.6965 26.1536 70.7215 26.3022 70.7415 26.4522C70.7615 26.6015 70.7765 26.7522 70.7858 26.9029C70.7958 27.0536 70.7994 27.2043 70.7987 27.3557C70.7987 29.4295 70.0865 31.0525 68.6622 32.2234C67.2379 33.3943 65.4107 33.9815 63.1813 33.9837ZM83.6168 33.6119L75.9652 11.4041H79.5346L84.604 26.8787C84.674 27.087 84.7412 27.296 84.8054 27.5065C84.8697 27.7162 84.9319 27.9273 84.9904 28.1385C85.1076 28.5619 85.2133 28.9884 85.3076 29.4174C85.354 29.2027 85.4033 28.9887 85.4562 28.7755C85.5083 28.5622 85.5633 28.3503 85.6219 28.1385C85.6805 27.9266 85.7419 27.7162 85.8062 27.5057C85.8698 27.296 85.9376 27.087 86.0076 26.8787L91.0134 11.4041H94.5528L86.9312 33.604L83.6168 33.6119ZM101.31 33.6119V11.4041H115.153V14.5115H104.628V20.6006H111.419V23.708H104.628V30.4817H115.853V33.5891L101.31 33.6119ZM124.297 33.6119V11.4041H127.616V30.4333H138.518V33.604L124.297 33.6119ZM151.014 14.5819V33.604H147.7V14.5748H141.388V11.4041H157.319V14.5748L151.014 14.5819ZM164.185 33.6119V11.4041H178.028V14.5115H167.499V20.6006H174.29V23.708H167.499V30.4817H178.724V33.5891L164.185 33.6119Z" fill="#4A4A55"/>
</svg>
