<svg width="199" height="36" viewBox="0 0 199 36" fill="none" xmlns="http://www.w3.org/2000/svg">
<g clip-path="url(#clip0_242_981)">
<path d="M71.1191 22.3491V5.8291H74.185V22.037C74.185 26.1914 76.5328 27.9663 80.5494 27.9663C84.3914 27.9663 86.7199 26.1914 86.7199 22.037V5.8291H89.7663V22.3491C89.7663 28.2589 85.6526 30.6189 80.433 30.6189C75.1357 30.6189 71.1191 28.2589 71.1191 22.3491Z" fill="white"/>
<path d="M102.786 12.1875C100.244 12.1875 98.4591 13.2797 97.1396 15.0936H97.062V12.5971H94.3066V35.9045H97.062V28.1614H97.1396C98.5949 30.0338 100.302 30.7554 102.689 30.7554C107.462 30.7554 110.354 27.1472 110.354 21.4715C110.354 15.6007 107.249 12.1875 102.786 12.1875ZM102.476 28.4149C98.4203 28.4149 96.8874 25.3138 96.8874 21.491C96.8874 17.6682 98.6725 14.528 102.514 14.528C105.852 14.528 107.521 17.5316 107.521 21.491C107.521 25.4893 105.852 28.4344 102.476 28.4149Z" fill="white"/>
<path d="M113.283 18.0194C113.283 10.8419 117.571 5.2832 124.829 5.2832C130.514 5.2832 133.948 8.5599 134.608 13.0654H131.6C131.018 10.0227 128.612 7.93576 124.751 7.93576C119.395 7.93576 116.407 12.2657 116.407 17.9999C116.407 23.9682 119.706 28.0055 124.79 28.0055C129.388 28.0055 131.562 24.8654 131.872 21.2766H134.899C134.86 23.6951 133.696 26.4257 131.969 28.142C130.262 29.8194 127.778 30.6971 124.673 30.6971C117.766 30.7166 113.283 25.431 113.283 18.0194Z" fill="white"/>
<path d="M141.322 5.82932H138.567V30.229H141.322V5.82932Z" fill="white"/>
<path d="M153.178 12.1484C147.92 12.1484 144.66 16.3028 144.66 21.4324C144.66 26.5425 147.92 30.7164 153.178 30.7164C158.456 30.7164 161.658 26.562 161.658 21.4324C161.658 16.3028 158.456 12.1484 153.178 12.1484ZM153.178 28.3954C149.434 28.3954 147.493 25.3332 147.493 21.4324C147.493 17.5316 149.434 14.4304 153.178 14.4304C156.923 14.4304 158.825 17.5316 158.825 21.4324C158.825 25.3137 156.923 28.3954 153.178 28.3954Z" fill="white"/>
<path d="M176.133 30.2289V27.8104H176.055C174.794 29.5268 173.3 30.6385 170.738 30.6385C167.129 30.6385 164.82 28.454 164.82 24.8068V12.5972H167.576V24.7482C167.576 27.0302 169.031 28.376 171.534 28.376C174.328 28.376 176.133 26.2696 176.133 23.461V12.5972H178.888V30.2484L176.133 30.2289Z" fill="white"/>
<path d="M195.555 5.82919V15.0937H195.497C194.275 13.2408 192.198 12.1485 189.986 12.1875C185.64 12.1875 182.264 15.6008 182.264 21.4715C182.283 27.1277 185.271 30.7555 190.045 30.736C192.528 30.736 194.178 29.7998 195.497 28.0834H195.555V30.2289H198.311V5.82919H195.555ZM190.161 28.415C186.785 28.415 185.077 25.4894 185.077 21.491C185.077 17.5317 186.785 14.528 190.122 14.528C193.77 14.528 195.749 17.3951 195.749 21.491C195.749 25.4894 194.1 28.4345 190.161 28.415Z" fill="white"/>
<path d="M56.683 20.6332C59.3413 20.6332 61.4758 22.7982 61.4758 25.4507C61.4758 28.1033 59.3219 30.2682 56.683 30.2682H22.377V17.7466H24.6278V28.0253H56.7024C58.1189 28.0253 59.2637 26.8745 59.2637 25.4507C59.2637 24.0269 58.1189 22.8762 56.7024 22.8762H26.8592V20.6332H56.683Z" fill="white"/>
<path d="M34.5618 5.84882H22.3761V10.9979H24.627V8.0918H34.5618C35.9783 8.0918 37.1231 9.24254 37.1231 10.6663C37.1231 12.0901 35.9783 13.2409 34.5618 13.2409H5.02909C2.37076 13.2409 0.236328 15.4058 0.236328 18.0584C0.236328 20.711 2.39016 22.8759 5.02909 22.8759H20.1059V20.633H5.02909C3.6126 20.633 2.46777 19.4822 2.46777 18.0584C2.46777 16.6346 3.6126 15.4839 5.02909 15.4839H34.5424C37.2007 15.4839 39.3351 13.3189 39.3351 10.6663C39.3351 8.01378 37.1813 5.84882 34.5618 5.84882Z" fill="white"/>
</g>
<defs>
<clipPath id="clip0_242_981">
<rect width="198.545" height="36" fill="white"/>
</clipPath>
</defs>
</svg>
