<svg width="51" height="40" viewBox="0 0 51 40" fill="none" xmlns="http://www.w3.org/2000/svg">
<path d="M6.22906 4.35294L1 14.4118L25.6513 39L49.5556 14.0392L43.953 4.35294L31.6273 1H17.8077L6.22906 4.35294Z" fill="white" stroke="white"/>
<path d="M21.9152 33.0394L5.85449 16.2747L16.3126 18.8826L21.9152 33.0394Z" fill="#111111" stroke="#111111"/>
<path d="M17.0602 16.2742L9.96362 7.33305L22.6628 10.686L17.0602 16.2742Z" fill="#111111" stroke="#111111"/>
<path d="M32.0006 19.2549H18.5544L25.2775 34.9019L32.0006 19.2549Z" fill="#111111" stroke="#111111"/>
<path d="M33.4941 16.2742L27.5181 10.686L40.5907 7.33305L33.4941 16.2742Z" fill="#111111" stroke="#111111"/>
<path d="M18.1811 3.23541L11.458 5.47071L25.2777 9.1962L39.0973 5.47071L32.0007 3.23541H18.1811Z" fill="#111111" stroke="#111111"/>
<path d="M46.9415 13.2938L36.4834 16.2742L43.2065 7.33305L46.9415 13.2938Z" fill="#111111" stroke="#111111"/>
</svg>
