<svg xmlns="http://www.w3.org/2000/svg" width="173" height="44" fill="none" viewBox="0 0 173 44"><g clip-path="url(#clip0_242_955)"><path fill="#fff" d="M61.6031 19.5945C61.6031 14.7519 60.2175 12.2657 57.4464 12.1296C56.3439 12.0777 55.2673 12.2527 54.22 12.6579C53.3841 12.9561 52.8215 13.2511 52.5255 13.5493V25.1081C54.2981 26.2167 55.8723 26.7321 57.2448 26.651C60.1492 26.4598 61.6031 24.1098 61.6031 19.5945ZM65.0214 19.7955C65.0214 22.2557 64.4425 24.2978 63.2781 25.9217C61.9804 27.7596 60.1818 28.7061 57.8823 28.758C56.1487 28.8131 54.3631 28.2717 52.5255 27.1373V37.6426L49.5527 36.5859V13.2673C50.0406 12.6709 50.6683 12.1587 51.4294 11.7244C53.1987 10.6969 55.3486 10.1685 57.879 10.1426L57.9213 10.1847C60.2338 10.1555 62.0161 11.102 63.2683 13.0209C64.436 14.781 65.0214 17.037 65.0214 19.7955Z"/><path fill="#fff" d="M83.1879 26.6899C83.1879 29.9897 82.8561 32.2749 82.1926 33.5455C81.5259 34.8161 80.2574 35.8307 78.384 36.5859C76.8651 37.1824 75.2226 37.5065 73.4598 37.5616L72.9687 35.6946C74.7608 35.4515 76.0227 35.2083 76.7545 34.9652C78.1954 34.479 79.1841 33.7335 79.7273 32.7352C80.1631 31.9216 80.3778 30.3689 80.3778 28.0708V27.2993C78.345 28.2199 76.2146 28.6769 73.9867 28.6769C72.5231 28.6769 71.2319 28.2199 70.1195 27.2993C68.8706 26.2977 68.2461 25.0271 68.2461 23.4874V11.1571L71.2188 10.1426V22.5539C71.2188 23.8796 71.6482 24.9007 72.5068 25.617C73.3655 26.3334 74.4778 26.677 75.8406 26.651C77.2034 26.6219 78.6637 26.0968 80.2151 25.0692V10.5899H83.1879V26.6899Z"/><path fill="#fff" d="M94.7931 28.596C94.4385 28.6252 94.1133 28.6381 93.8141 28.6381C92.1326 28.6381 90.8218 28.2394 89.8851 27.4388C88.9516 26.6382 88.4833 25.5329 88.4833 24.1229V12.4538H86.4473V10.59H88.4833V5.64037L91.4528 4.58691V10.59H94.7931V12.4538H91.4528V24.0418C91.4528 25.1536 91.752 25.9413 92.3505 26.4016C92.8644 26.7808 93.6807 26.998 94.7931 27.0531V28.596Z"/><path fill="#fff" d="M112.792 28.3527H109.819V16.9171C109.819 15.7534 109.546 14.7518 109.003 13.9155C108.375 12.969 107.503 12.4958 106.384 12.4958C105.022 12.4958 103.317 13.2122 101.272 14.6449V28.3527H98.2988V1.018L101.272 0.0844727V12.5347C103.171 11.1571 105.246 10.4667 107.5 10.4667C109.074 10.4667 110.349 10.995 111.325 12.0485C112.304 13.1019 112.792 14.4147 112.792 15.9836V28.3527Z"/><path fill="#fff" d="M128.594 19.1277C128.594 17.2672 128.239 15.7308 127.533 14.5152C126.694 13.0339 125.39 12.2527 123.627 12.1717C120.368 12.3597 118.742 14.687 118.742 19.1472C118.742 21.1925 119.08 22.9007 119.763 24.2719C120.635 26.019 121.942 26.8812 123.686 26.852C126.958 26.8261 128.594 24.2524 128.594 19.1277ZM131.849 19.1472C131.849 21.7954 131.17 23.9996 129.813 25.7597C128.321 27.7304 126.258 28.7191 123.627 28.7191C121.019 28.7191 118.986 27.7304 117.519 25.7597C116.189 23.9996 115.525 21.7954 115.525 19.1472C115.525 16.6578 116.244 14.5639 117.682 12.8589C119.201 11.0502 121.198 10.1426 123.666 10.1426C126.135 10.1426 128.145 11.0502 129.693 12.8589C131.131 14.5639 131.849 16.6578 131.849 19.1472Z"/><path fill="#fff" d="M148.892 28.3528H145.919V16.2688C145.919 14.9431 145.519 13.9091 144.719 13.1636C143.919 12.4213 142.852 12.0615 141.522 12.0907C140.111 12.1166 138.767 12.5769 137.492 13.4683V28.3528H134.52V13.102C136.23 11.8605 137.805 11.0502 139.242 10.6709C140.598 10.3176 141.795 10.1426 142.826 10.1426C143.532 10.1426 144.196 10.2106 144.82 10.3468C145.988 10.6158 146.937 11.115 147.669 11.8476C148.486 12.6579 148.892 13.6303 148.892 14.7681V28.3528Z"/><path fill="url(#paint0_linear_242_955)" d="M20.1908 1.12747C18.6613 1.13456 17.2007 1.26456 15.9155 1.4912C12.1294 2.1578 11.442 3.55305 11.442 6.12613V9.52438H20.3889V10.6571H11.442H8.0843C5.48407 10.6571 3.20724 12.2147 2.49508 15.1777C1.6736 18.5741 1.63717 20.6934 2.49508 24.2398C3.13106 26.8795 4.64986 28.7604 7.25009 28.7604H10.3262V24.6866C10.3262 21.7436 12.8813 19.1476 15.9155 19.1476H24.852C27.3396 19.1476 29.3254 17.1063 29.3254 14.6166V6.12613C29.3254 3.7097 27.2799 1.89449 24.852 1.4912C23.315 1.23622 21.7203 1.12039 20.1908 1.12747ZM15.3524 3.86062C16.2765 3.86062 17.0312 4.62504 17.0312 5.56495C17.0312 6.50152 16.2765 7.25888 15.3524 7.25888C14.4249 7.25888 13.6735 6.50152 13.6735 5.56495C13.6735 4.62504 14.4249 3.86062 15.3524 3.86062Z"/><path fill="url(#paint1_linear_242_955)" d="M30.4406 10.6572V14.6167C30.4406 17.6864 27.8292 20.27 24.8514 20.27H15.9149C13.467 20.27 11.4414 22.3579 11.4414 24.801V33.2915C11.4414 35.7079 13.5498 37.1292 15.9149 37.8225C18.747 38.6524 21.4628 38.8024 24.8514 37.8225C27.1038 37.1725 29.3248 35.8645 29.3248 33.2915V29.8932H20.3883V28.7605H29.3248H33.7983C36.3985 28.7605 37.3675 26.9529 38.2717 24.2399C39.2058 21.4468 39.1661 18.7608 38.2717 15.1778C37.6291 12.5981 36.4018 10.6572 33.7983 10.6572H30.4406ZM25.4145 32.1587C26.3419 32.1587 27.0933 32.9161 27.0933 33.8527C27.0933 34.7926 26.3419 35.557 25.4145 35.557C24.4903 35.557 23.7356 34.7926 23.7356 33.8527C23.7356 32.9161 24.4903 32.1587 25.4145 32.1587Z"/><path fill="#fff" d="M154.68 7.94879H155.201V4.69104H156.436V4.30273H153.445V4.69104H154.68V7.94879ZM156.898 7.94879H157.343V4.97345L158.31 7.94842H158.806L159.813 4.98353V7.94879H160.298V4.30273H159.656L158.555 7.42634L157.617 4.30273H156.898V7.94879Z"/><path fill="url(#paint2_radial_242_955)" d="M32.4792 43.5943C32.4792 43.8986 32.1691 44.1999 31.5666 44.481C30.9641 44.7621 30.0809 45.0175 28.9676 45.2327C27.8542 45.4478 26.5325 45.6185 25.0779 45.7349C23.6232 45.8514 22.0641 45.9113 20.4896 45.9113C18.9151 45.9113 17.356 45.8514 15.9014 45.7349C14.4467 45.6185 13.125 45.4478 12.0117 45.2327C10.8983 45.0175 10.0152 44.7621 9.41266 44.481C8.81012 44.1999 8.5 43.8986 8.5 43.5943C8.5 43.2901 8.81012 42.9888 9.41266 42.7077C10.0152 42.4265 10.8983 42.1711 12.0117 41.956C13.125 41.7408 14.4467 41.5702 15.9014 41.4537C17.356 41.3373 18.9151 41.2773 20.4896 41.2773C22.0641 41.2773 23.6232 41.3373 25.0779 41.4537C26.5325 41.5702 27.8542 41.7408 28.9676 41.956C30.0809 42.1711 30.9641 42.4265 31.5666 42.7077C32.1691 42.9888 32.4792 43.2901 32.4792 43.5943Z" opacity=".444"/></g><defs><linearGradient id="paint0_linear_242_955" x1="1.865" x2="22.437" y1="1.127" y2="18.717" gradientUnits="userSpaceOnUse"><stop stop-color="#5A9FD4"/><stop offset="1" stop-color="#306998"/></linearGradient><linearGradient id="paint1_linear_242_955" x1="25.2" x2="17.831" y1="33.567" y2="23.207" gradientUnits="userSpaceOnUse"><stop stop-color="#FFD43B"/><stop offset="1" stop-color="#FFE873"/></linearGradient><radialGradient id="paint2_radial_242_955" cx="0" cy="0" r="1" gradientTransform="translate(20.4896 43.5943) rotate(-90) scale(2.31699 10.2189)" gradientUnits="userSpaceOnUse"><stop stop-color="#B8B8B8" stop-opacity=".498"/><stop offset="1" stop-color="#7F7F7F" stop-opacity="0"/></radialGradient><clipPath id="clip0_242_955"><rect width="173" height="44" fill="#fff"/></clipPath></defs></svg>